<?xml version="1.0" encoding="UTF-8"?>
<svg width="595px" height="842px" viewBox="0 0 595 842" version="1.1" xmlns="http://www.w3.org/2000/svg" xmlns:xlink="http://www.w3.org/1999/xlink">
    <!-- Generator: Sketch 43.2 (39069) - http://www.bohemiancoding.com/sketch -->
    <title>A4</title>
    <desc>Created with Sketch.</desc>
    <defs></defs>
    <g id="Page-1" stroke="none" stroke-width="1" fill="none" fill-rule="evenodd">
        <g id="A4">
            <path d="M94.252,95 C91.9052,95 90,96.9052 90,99.252 C90,101.5987 91.9052,103.504 94.252,103.504 C96.5987,103.504 98.504,101.5987 98.504,99.252 C98.504,96.9052 96.5987,95 94.252,95 Z" id="Stroke-3" stroke="#FF0000" transform="translate(94.252000, 99.252000) rotate(-270.000000) translate(-94.252000, -99.252000) "></path>
            <path d="M94.252,123 C91.9052,123 90,124.9052 90,127.252 C90,129.5987 91.9052,131.504 94.252,131.504 C96.5987,131.504 98.504,129.5987 98.504,127.252 C98.504,124.9052 96.5987,123 94.252,123 Z" id="Stroke-4" stroke="#FF0000" transform="translate(94.252000, 127.252000) rotate(-270.000000) translate(-94.252000, -127.252000) "></path>
            <path d="M140.252,123 C137.9052,123 136,124.9052 136,127.252 C136,129.5987 137.9052,131.504 140.252,131.504 C142.5987,131.504 144.504,129.5987 144.504,127.252 C144.504,124.9052 142.5987,123 140.252,123 Z" id="Stroke-5" stroke="#FF0000" transform="translate(140.252000, 127.252000) rotate(-270.000000) translate(-140.252000, -127.252000) "></path>
            <path d="M94.25185,151.99985 C91.90535,151.99985 90.00015,153.90505 90.00015,156.25185 C90.00015,158.59855 91.90535,160.50385 94.25185,160.50385 C96.59885,160.50385 98.50385,158.59855 98.50385,156.25185 C98.50385,153.90505 96.59885,151.99985 94.25185,151.99985 Z" id="Stroke-6" stroke="#FF0000" transform="translate(94.252000, 156.251850) rotate(-270.000000) translate(-94.252000, -156.251850) "></path>
            <path d="M140.25185,151.99985 C137.90535,151.99985 136.00015,153.90505 136.00015,156.25185 C136.00015,158.59855 137.90535,160.50385 140.25185,160.50385 C142.59885,160.50385 144.50385,158.59855 144.50385,156.25185 C144.50385,153.90505 142.59885,151.99985 140.25185,151.99985 Z" id="Stroke-7" stroke="#FF0000" transform="translate(140.252000, 156.251850) rotate(-270.000000) translate(-140.252000, -156.251850) "></path>
            <path d="M186.25185,151.99985 C183.90535,151.99985 182.00015,153.90485 182.00015,156.25185 C182.00015,158.59885 183.90535,160.50385 186.25185,160.50385 C188.59885,160.50385 190.50385,158.59885 190.50385,156.25185 C190.50385,153.90485 188.59885,151.99985 186.25185,151.99985 Z" id="Stroke-8" stroke="#FF0000" transform="translate(186.252000, 156.251850) rotate(-270.000000) translate(-186.252000, -156.251850) "></path>
            <path d="M94.252,180 C91.905,180 90,181.9052 90,184.252 C90,186.5987 91.905,188.504 94.252,188.504 C96.599,188.504 98.504,186.5987 98.504,184.252 C98.504,181.9052 96.599,180 94.252,180 Z" id="Stroke-9" stroke="#FF0000" transform="translate(94.252000, 184.252000) rotate(-270.000000) translate(-94.252000, -184.252000) "></path>
            <path d="M140.252,180 C137.905,180 136,181.9052 136,184.252 C136,186.5987 137.905,188.504 140.252,188.504 C142.599,188.504 144.504,186.5987 144.504,184.252 C144.504,181.9052 142.599,180 140.252,180 Z" id="Stroke-10" stroke="#FF0000" transform="translate(140.252000, 184.252000) rotate(-270.000000) translate(-140.252000, -184.252000) "></path>
            <path d="M186.252,180 C183.905,180 182,181.905 182,184.252 C182,186.599 183.905,188.504 186.252,188.504 C188.599,188.504 190.504,186.599 190.504,184.252 C190.504,181.905 188.599,180 186.252,180 Z" id="Stroke-11" stroke="#FF0000" transform="translate(186.252000, 184.252000) rotate(-270.000000) translate(-186.252000, -184.252000) "></path>
            <path d="M232.252,180 C229.905,180 228,181.905 228,184.252 C228,186.598 229.905,188.504 232.252,188.504 C234.599,188.504 236.504,186.598 236.504,184.252 C236.504,181.905 234.599,180 232.252,180 Z" id="Stroke-12" stroke="#FF0000" transform="translate(232.252000, 184.252000) rotate(-270.000000) translate(-232.252000, -184.252000) "></path>
            <path d="M94.252,208 C91.905,208 90,209.9052 90,212.252 C90,214.5987 91.905,216.504 94.252,216.504 C96.598,216.504 98.504,214.5987 98.504,212.252 C98.504,209.9052 96.598,208 94.252,208 Z" id="Stroke-13" stroke="#FF0000" transform="translate(94.252000, 212.252000) rotate(-270.000000) translate(-94.252000, -212.252000) "></path>
            <path d="M140.252,208 C137.905,208 136,209.9052 136,212.252 C136,214.5987 137.905,216.504 140.252,216.504 C142.598,216.504 144.504,214.5987 144.504,212.252 C144.504,209.9052 142.598,208 140.252,208 Z" id="Stroke-14" stroke="#FF0000" transform="translate(140.252000, 212.252000) rotate(-270.000000) translate(-140.252000, -212.252000) "></path>
            <path d="M186.252,208 C183.905,208 182,209.905 182,212.252 C182,214.599 183.905,216.504 186.252,216.504 C188.598,216.504 190.504,214.599 190.504,212.252 C190.504,209.905 188.598,208 186.252,208 Z" id="Stroke-15" stroke="#FF0000" transform="translate(186.252000, 212.252000) rotate(-270.000000) translate(-186.252000, -212.252000) "></path>
            <path d="M232.252,208 C229.905,208 228,209.905 228,212.252 C228,214.598 229.905,216.504 232.252,216.504 C234.598,216.504 236.504,214.598 236.504,212.252 C236.504,209.905 234.598,208 232.252,208 Z" id="Stroke-16" stroke="#FF0000" transform="translate(232.252000, 212.252000) rotate(-270.000000) translate(-232.252000, -212.252000) "></path>
            <path d="M278.252,208 C275.905,208 274,209.906 274,212.252 C274,214.599 275.905,216.504 278.252,216.504 C280.598,216.504 282.504,214.599 282.504,212.252 C282.504,209.906 280.598,208 278.252,208 Z" id="Stroke-17" stroke="#FF0000" transform="translate(278.252000, 212.252000) rotate(-270.000000) translate(-278.252000, -212.252000) "></path>
            <path d="M94.252,237 C91.906,237 90,238.9052 90,241.252 C90,243.5987 91.906,245.504 94.252,245.504 C96.599,245.504 98.504,243.5987 98.504,241.252 C98.504,238.9052 96.599,237 94.252,237 Z" id="Stroke-18" stroke="#FF0000" transform="translate(94.252000, 241.252000) rotate(-270.000000) translate(-94.252000, -241.252000) "></path>
            <path d="M140.252,237 C137.906,237 136,238.9052 136,241.252 C136,243.5987 137.906,245.504 140.252,245.504 C142.599,245.504 144.504,243.5987 144.504,241.252 C144.504,238.9052 142.599,237 140.252,237 Z" id="Stroke-19" stroke="#FF0000" transform="translate(140.252000, 241.252000) rotate(-270.000000) translate(-140.252000, -241.252000) "></path>
            <path d="M186.252,237 C183.906,237 182,238.905 182,241.252 C182,243.599 183.906,245.504 186.252,245.504 C188.599,245.504 190.504,243.599 190.504,241.252 C190.504,238.905 188.599,237 186.252,237 Z" id="Stroke-20" stroke="#FF0000" transform="translate(186.252000, 241.252000) rotate(-270.000000) translate(-186.252000, -241.252000) "></path>
            <path d="M232.252,237 C229.906,237 228,238.905 228,241.252 C228,243.598 229.906,245.504 232.252,245.504 C234.599,245.504 236.504,243.598 236.504,241.252 C236.504,238.905 234.599,237 232.252,237 Z" id="Stroke-21" stroke="#FF0000" transform="translate(232.252000, 241.252000) rotate(-270.000000) translate(-232.252000, -241.252000) "></path>
            <path d="M278.252,237 C275.906,237 274,238.906 274,241.252 C274,243.599 275.906,245.504 278.252,245.504 C280.599,245.504 282.504,243.599 282.504,241.252 C282.504,238.906 280.599,237 278.252,237 Z" id="Stroke-22" stroke="#FF0000" transform="translate(278.252000, 241.252000) rotate(-270.000000) translate(-278.252000, -241.252000) "></path>
            <path d="M324.252,237 C321.906,237 320,238.906 320,241.252 C320,243.599 321.906,245.504 324.252,245.504 C326.599,245.504 328.504,243.599 328.504,241.252 C328.504,238.906 326.599,237 324.252,237 Z" id="Stroke-23" stroke="#FF0000" transform="translate(324.252000, 241.252000) rotate(-270.000000) translate(-324.252000, -241.252000) "></path>
            <path d="M94.252,265 C91.905,265 90,266.9052 90,269.252 C90,271.5987 91.905,273.504 94.252,273.504 C96.599,273.504 98.504,271.5987 98.504,269.252 C98.504,266.9052 96.599,265 94.252,265 Z" id="Stroke-24" stroke="#FF0000" transform="translate(94.252000, 269.252000) rotate(-270.000000) translate(-94.252000, -269.252000) "></path>
            <path d="M140.252,265 C137.905,265 136,266.9052 136,269.252 C136,271.5987 137.905,273.504 140.252,273.504 C142.599,273.504 144.504,271.5987 144.504,269.252 C144.504,266.9052 142.599,265 140.252,265 Z" id="Stroke-25" stroke="#FF0000" transform="translate(140.252000, 269.252000) rotate(-270.000000) translate(-140.252000, -269.252000) "></path>
            <path d="M186.252,265 C183.905,265 182,266.905 182,269.252 C182,271.599 183.905,273.504 186.252,273.504 C188.599,273.504 190.504,271.599 190.504,269.252 C190.504,266.905 188.599,265 186.252,265 Z" id="Stroke-26" stroke="#FF0000" transform="translate(186.252000, 269.252000) rotate(-270.000000) translate(-186.252000, -269.252000) "></path>
            <path d="M232.252,265 C229.905,265 228,266.905 228,269.252 C228,271.598 229.905,273.504 232.252,273.504 C234.599,273.504 236.504,271.598 236.504,269.252 C236.504,266.905 234.599,265 232.252,265 Z" id="Stroke-27" stroke="#FF0000" transform="translate(232.252000, 269.252000) rotate(-270.000000) translate(-232.252000, -269.252000) "></path>
            <path d="M278.252,265 C275.905,265 274,266.906 274,269.252 C274,271.599 275.905,273.504 278.252,273.504 C280.599,273.504 282.504,271.599 282.504,269.252 C282.504,266.906 280.599,265 278.252,265 Z" id="Stroke-28" stroke="#FF0000" transform="translate(278.252000, 269.252000) rotate(-270.000000) translate(-278.252000, -269.252000) "></path>
            <path d="M324.252,265 C321.905,265 320,266.906 320,269.252 C320,271.599 321.905,273.504 324.252,273.504 C326.599,273.504 328.504,271.599 328.504,269.252 C328.504,266.906 326.599,265 324.252,265 Z" id="Stroke-29" stroke="#FF0000" transform="translate(324.252000, 269.252000) rotate(-270.000000) translate(-324.252000, -269.252000) "></path>
            <path d="M369.252,265 C366.905,265 365,266.905 365,269.252 C365,271.599 366.905,273.504 369.252,273.504 C371.599,273.504 373.504,271.599 373.504,269.252 C373.504,266.905 371.599,265 369.252,265 Z" id="Stroke-30" stroke="#FF0000" transform="translate(369.252000, 269.252000) rotate(-270.000000) translate(-369.252000, -269.252000) "></path>
            <path d="M336.1494,42.1028 L151.8972,340.1494" id="Stroke-31" stroke="#0000FF" transform="translate(244.023300, 191.126100) rotate(-270.000000) translate(-244.023300, -191.126100) "></path>
            <path d="M299.08145,78.82475 L143.17525,331.08145" id="Stroke-32" stroke="#0000FF" transform="translate(221.128350, 204.953100) rotate(-270.000000) translate(-221.128350, -204.953100) "></path>
            <path d="M261.97595,116.58405 L134.41595,322.97595" id="Stroke-33" stroke="#0000FF" transform="translate(198.195950, 219.780000) rotate(-270.000000) translate(-198.195950, -219.780000) "></path>
            <path d="M224.8698,153.3432 L125.6568,313.8698" id="Stroke-34" stroke="#0000FF" transform="translate(175.263300, 233.606500) rotate(-270.000000) translate(-175.263300, -233.606500) "></path>
            <path d="M187.76295,191.10205 L116.89795,305.76295" id="Stroke-35" stroke="#0000FF" transform="translate(152.330450, 248.432500) rotate(-270.000000) translate(-152.330450, -248.432500) "></path>
            <path d="M150.6585,227.8615 L108.1385,296.6585" id="Stroke-36" stroke="#0000FF" transform="translate(129.398500, 262.260000) rotate(-270.000000) translate(-129.398500, -262.260000) "></path>
            <path d="M113.7365,264.5775 L99.4225,287.7365" id="Stroke-37" stroke="#0000FF" transform="translate(106.579500, 276.157000) rotate(-270.000000) translate(-106.579500, -276.157000) "></path>
            <path d="M18.217,183.783 L216.783,183.783" id="Stroke-38" stroke="#0000FF" transform="translate(117.500000, 184.283000) rotate(-270.000000) translate(-117.500000, -184.283000) "></path>
            <path d="M78.46085,197.53915 L248.53915,197.53915" id="Stroke-39" stroke="#0000FF" transform="translate(163.500000, 198.039150) rotate(-270.000000) translate(-163.500000, -198.039150) "></path>
            <path d="M138.6342,212.3658 L280.3658,212.3658" id="Stroke-40" stroke="#0000FF" transform="translate(209.500000, 212.865800) rotate(-270.000000) translate(-209.500000, -212.865800) "></path>
            <path d="M198.8065,226.1935 L312.1935,226.1935" id="Stroke-41" stroke="#0000FF" transform="translate(255.500000, 226.693500) rotate(-270.000000) translate(-255.500000, -226.693500) "></path>
            <path d="M258.98,240.02 L344.02,240.02" id="Stroke-42" stroke="#0000FF" transform="translate(301.500000, 240.520000) rotate(-270.000000) translate(-301.500000, -240.520000) "></path>
            <path d="M319.1535,254.8465 L375.8465,254.8465" id="Stroke-43" stroke="#0000FF" transform="translate(347.500000, 255.346500) rotate(-270.000000) translate(-347.500000, -255.346500) "></path>
            <path d="M379.3265,268.6735 L407.6735,268.6735" id="Stroke-44" stroke="#0000FF" transform="translate(393.500000, 269.173500) rotate(-270.000000) translate(-393.500000, -269.173500) "></path>
            <path d="M48.30345,190.69655 L232.69655,190.69655" id="Stroke-45" stroke="#0000FF" transform="translate(140.500000, 191.196550) rotate(-270.000000) translate(-140.500000, -191.196550) "></path>
            <path d="M108.5468,204.4532 L264.4532,204.4532" id="Stroke-46" stroke="#0000FF" transform="translate(186.500000, 204.953200) rotate(-270.000000) translate(-186.500000, -204.953200) "></path>
            <path d="M168.7205,219.2795 L296.2795,219.2795" id="Stroke-47" stroke="#0000FF" transform="translate(232.500000, 219.779500) rotate(-270.000000) translate(-232.500000, -219.779500) "></path>
            <path d="M228.8935,233.1065 L328.1065,233.1065" id="Stroke-48" stroke="#0000FF" transform="translate(278.500000, 233.606500) rotate(-270.000000) translate(-278.500000, -233.606500) "></path>
            <path d="M289.0675,247.9325 L359.9325,247.9325" id="Stroke-49" stroke="#0000FF" transform="translate(324.500000, 248.432500) rotate(-270.000000) translate(-324.500000, -248.432500) "></path>
            <path d="M349.2395,261.7605 L391.7605,261.7605" id="Stroke-50" stroke="#0000FF" transform="translate(370.500000, 262.260500) rotate(-270.000000) translate(-370.500000, -262.260500) "></path>
            <path d="M408.413,275.587 L422.587,275.587" id="Stroke-51" stroke="#0000FF" transform="translate(415.500000, 276.087000) rotate(-270.000000) translate(-415.500000, -276.087000) "></path>
            <path d="M105.966,74.034 L105.966,96.966" id="Stroke-52" stroke="#0000FF" transform="translate(106.466000, 85.500000) rotate(-270.000000) translate(-106.466000, -85.500000) "></path>
            <path d="M128.8985,79.1015 L128.8985,147.8985" id="Stroke-53" stroke="#0000FF" transform="translate(129.398500, 113.500000) rotate(-270.000000) translate(-129.398500, -113.500000) "></path>
            <path d="M151.8307,84.1693 L151.8307,198.8307" id="Stroke-54" stroke="#0000FF" transform="translate(152.330700, 141.500000) rotate(-270.000000) translate(-152.330700, -141.500000) "></path>
            <path d="M174.76255,90.23745 L174.76255,250.76255" id="Stroke-55" stroke="#0000FF" transform="translate(175.262550, 170.500000) rotate(-270.000000) translate(-175.262550, -170.500000) "></path>
            <path d="M197.69545,95.30455 L197.69545,301.69545" id="Stroke-56" stroke="#0000FF" transform="translate(198.195450, 198.500000) rotate(-270.000000) translate(-198.195450, -198.500000) "></path>
            <path d="M220.6273,101.3727 L220.6273,353.6273" id="Stroke-57" stroke="#FF0000" transform="translate(221.127300, 227.500000) rotate(-270.000000) translate(-221.127300, -227.500000) "></path>
            <path d="M243.5597,106.4403 L243.5597,404.5597" id="Stroke-58" stroke="#0000FF" transform="translate(244.059700, 255.500000) rotate(-270.000000) translate(-244.059700, -255.500000) "></path>
            <path d="M117.432,76.568 L117.432,122.432" id="Stroke-59" stroke="#0000FF" transform="translate(117.932000, 99.500000) rotate(-270.000000) translate(-117.932000, -99.500000) "></path>
            <path d="M140.3645,81.6355 L140.3645,173.3645" id="Stroke-60" stroke="#0000FF" transform="translate(140.864500, 127.500000) rotate(-270.000000) translate(-140.864500, -127.500000) "></path>
            <path d="M163.29685,87.70315 L163.29685,225.29685" id="Stroke-61" stroke="#0000FF" transform="translate(163.796850, 156.500000) rotate(-270.000000) translate(-163.796850, -156.500000) "></path>
            <path d="M186.22925,92.77075 L186.22925,276.22925" id="Stroke-62" stroke="#0000FF" transform="translate(186.729250, 184.500000) rotate(-270.000000) translate(-186.729250, -184.500000) "></path>
            <path d="M209.1611,97.8389 L209.1611,327.1611" id="Stroke-63" stroke="#0000FF" transform="translate(209.661100, 212.500000) rotate(-270.000000) translate(-209.661100, -212.500000) "></path>
            <path d="M232.094,103.906 L232.094,379.094" id="Stroke-64" stroke="#0000FF" transform="translate(232.594000, 241.500000) rotate(-270.000000) translate(-232.594000, -241.500000) "></path>
            <path d="M255.02585,108.97415 L255.02585,430.02585" id="Stroke-65" stroke="#0000FF" transform="translate(255.525850, 269.500000) rotate(-270.000000) translate(-255.525850, -269.500000) "></path>
            <path d="M-41.88535,169.88535 L184.88535,169.88535" id="Stroke-67" stroke="#FF0000" transform="translate(71.500000, 170.385350) rotate(-270.000000) translate(-71.500000, -170.385350) "></path>
            <path d="M-11.78395,176.78395 L200.78395,176.78395" id="Stroke-68" stroke="#0000FF" transform="translate(94.500000, 177.283950) rotate(-270.000000) translate(-94.500000, -177.283950) "></path>
            <path d="M72,57 L438.9161,283.7712" id="Path" stroke="#FF0000"></path>
            <path d="M81.5805,74.8305 L81.5805,75.9985 C81.3805,75.7535 81.2005,75.5855 81.0415,75.4945 C80.8855,75.4005 80.7015,75.3535 80.4905,75.3535 C80.1595,75.3535 79.8855,75.4705 79.6665,75.7015 C79.4475,75.9335 79.3385,76.2245 79.3385,76.5725 C79.3385,76.9295 79.4435,77.2225 79.6545,77.4515 C79.8685,77.6815 80.1405,77.7955 80.4715,77.7955 C80.6825,77.7955 80.8685,77.7495 81.0295,77.6585 C81.1855,77.5695 81.3695,77.3975 81.5805,77.1435 L81.5805,78.3035 C81.2245,78.4875 80.8665,78.5805 80.5105,78.5805 C79.9215,78.5805 79.4295,78.3905 79.0335,78.0105 C78.6385,77.6275 78.4395,77.1515 78.4395,76.5845 C78.4395,76.0175 78.6405,75.5375 79.0415,75.1465 C79.4425,74.7565 79.9345,74.5605 80.5175,74.5605 C80.8925,74.5605 81.2475,74.6505 81.5805,74.8305" id="Fill-76" fill="#000000" transform="translate(80.010000, 76.570500) rotate(-270.000000) translate(-80.010000, -76.570500) "></path>
            <path d="M77.3455,79.7595 L78.2245,79.7595 L78.2245,80.1115 C78.3935,79.9345 78.5375,79.8145 78.6585,79.7515 C78.7855,79.6865 78.9465,79.6545 79.1385,79.6545 C79.5685,79.6545 79.9085,79.8415 80.1585,80.2165 C80.4345,79.8415 80.8075,79.6545 81.2795,79.6545 C82.1355,79.6545 82.5645,80.1735 82.5645,81.2125 L82.5645,83.5645 L81.6815,83.5645 L81.6815,81.4505 C81.6815,81.0865 81.6375,80.8285 81.5485,80.6775 C81.4575,80.5245 81.3075,80.4475 81.0995,80.4475 C80.8575,80.4475 80.6805,80.5375 80.5705,80.7205 C80.4595,80.9035 80.4045,81.1965 80.4045,81.5995 L80.4045,83.5645 L79.5215,83.5645 L79.5215,81.4625 C79.5215,80.7855 79.3255,80.4475 78.9355,80.4475 C78.6885,80.4475 78.5075,80.5395 78.3945,80.7245 C78.2815,80.9085 78.2245,81.2005 78.2245,81.5995 L78.2245,83.5645 L77.3455,83.5645 L77.3455,79.7595 Z" id="Fill-77" fill="#000000" transform="translate(79.955000, 81.609500) rotate(-270.000000) translate(-79.955000, -81.609500) "></path>
            <polygon id="Fill-91" fill="#000000" transform="translate(409.835000, 274.445000) rotate(-270.000000) translate(-409.835000, -274.445000) " points="411.538 273.901 409.007 272.337 409.456 271.61 413.28 273.973 406.765 277.28 406.39 276.51"></polygon>
            <path d="M363.053745,246.89481 C363.222745,246.62181 363.271745,246.33381 363.198745,246.02981 C363.125745,245.72081 362.955745,245.48481 362.688745,245.31881 C362.417745,245.15081 362.129745,245.10381 361.824745,245.17581 C361.520745,245.24881 361.285745,245.41781 361.119745,245.68581 C360.953745,245.95381 360.907745,246.24081 360.979745,246.54481 C361.051745,246.84981 361.223745,247.08581 361.495745,247.25381 C361.761745,247.41781 362.045745,247.46481 362.351745,247.39281 C362.658745,247.31881 362.893745,247.15481 363.053745,246.89481 L363.053745,246.89481 Z M364.961745,242.91581 L365.266745,243.69381 L363.010745,244.60381 C363.081745,244.63681 363.142745,244.66481 363.192745,244.68781 C363.241745,244.71281 363.278745,244.73281 363.305745,244.74981 C363.721745,245.00581 363.983745,245.38881 364.089745,245.89481 C364.197745,246.39681 364.113745,246.86781 363.838745,247.31081 C363.549745,247.78181 363.131745,248.08081 362.586745,248.20881 C362.045745,248.33581 361.539745,248.25381 361.070745,247.96481 C360.604745,247.67781 360.299745,247.25981 360.153745,246.71281 C360.014745,246.17181 360.083745,245.67381 360.363745,245.22281 C360.614745,244.81681 361.046745,244.49081 361.661745,244.24281 L364.961745,242.91581 Z" id="Fill-92" fill="#000000" transform="translate(362.675468, 245.591278) rotate(-270.000000) translate(-362.675468, -245.591278) "></path>
            <path d="M320.471182,216.198827 L318.889182,215.219827 L318.113182,215.911827 C318.153182,215.928827 318.192182,215.948827 318.227182,215.968827 C318.262182,215.987827 318.294182,216.005827 318.324182,216.022827 C318.823182,216.331827 319.127182,216.753827 319.238182,217.286827 C319.352182,217.819827 319.248182,218.346827 318.924182,218.870827 C318.590182,219.409827 318.133182,219.743827 317.555182,219.868827 C316.975182,219.995827 316.408182,219.886827 315.858182,219.546827 C315.177182,219.124827 314.838182,218.475827 314.840182,217.594827 L315.731182,217.460827 C315.723182,217.835827 315.766182,218.130827 315.860182,218.344827 C315.955182,218.555827 316.122182,218.735827 316.360182,218.882827 C316.669182,219.073827 316.996182,219.126827 317.341182,219.038827 C317.690182,218.944827 317.963182,218.739827 318.160182,218.421827 C318.363182,218.093827 318.424182,217.759827 318.344182,217.423827 C318.269182,217.079827 318.075182,216.811827 317.763182,216.618827 C317.414182,216.403827 317.022182,216.370827 316.581182,216.516827 L316.325182,216.358827 L318.800182,214.159827 L320.920182,215.469827 L320.471182,216.198827 Z" id="Fill-93" fill="#000000" transform="translate(317.880178, 217.040004) rotate(-270.000000) translate(-317.880178, -217.040004) "></path>
            <path d="M270.586,189.972 L271.649,188.253 L269.402,189.24 L270.586,189.972 Z M271.359,190.451 L271.904,190.786 L271.47,191.492 L270.925,191.154 L270.475,191.882 L269.701,191.404 L270.15,190.675 L267.632,189.118 L273.882,186.368 L271.359,190.451 Z" id="Fill-94" fill="#000000" transform="translate(270.757000, 189.125000) rotate(-270.000000) translate(-270.757000, -189.125000) "></path>
            <path d="M225.708916,160.677237 L226.116916,160.015237 C226.444916,160.218237 226.687916,160.318237 226.846916,160.316237 C227.127916,160.310237 227.354916,160.167237 227.530916,159.884237 C227.665916,159.665237 227.702916,159.441237 227.642916,159.212237 C227.584916,158.984237 227.438916,158.800237 227.209916,158.657237 C226.993916,158.525237 226.796916,158.474237 226.614916,158.505237 C226.436916,158.540237 226.241916,158.669237 226.028916,158.888237 L225.258916,158.411237 C225.636916,157.978237 226.019916,157.724237 226.405916,157.654237 C226.794916,157.581237 227.209916,157.683237 227.654916,157.958237 C228.104916,158.236237 228.390916,158.597237 228.508916,159.036237 C228.628916,159.476237 228.560916,159.904237 228.303916,160.320237 C228.013916,160.788237 227.601916,161.040237 227.067916,161.072237 C227.341916,161.585237 227.302916,162.124237 226.954916,162.687237 C226.669916,163.148237 226.282916,163.429237 225.789916,163.529237 C225.297916,163.628237 224.809916,163.529237 224.323916,163.230237 C223.706916,162.847237 223.388916,162.337237 223.368916,161.697237 C223.362916,161.431237 223.447916,161.118237 223.622916,160.761237 L224.369916,161.222237 C224.256916,161.495237 224.235916,161.745237 224.308916,161.972237 C224.380916,162.200237 224.540916,162.390237 224.789916,162.542237 C225.039916,162.697237 225.298916,162.743237 225.563916,162.677237 C225.833916,162.609237 226.049916,162.443237 226.211916,162.181237 C226.425916,161.835237 226.453916,161.515237 226.298916,161.216237 C226.206916,161.042237 226.009916,160.863237 225.708916,160.677237" id="Fill-95" fill="#000000" transform="translate(225.967475, 160.598856) rotate(-270.000000) translate(-225.967475, -160.598856) "></path>
            <path d="M178.287855,133.369226 L180.197855,134.551226 L179.748855,135.277226 L176.302855,133.148226 L179.416855,132.092226 C179.725855,131.986226 179.985855,131.890226 180.201855,131.806226 C180.417855,131.723226 180.588855,131.646226 180.717855,131.578226 C180.971855,131.447226 181.150855,131.301226 181.253855,131.135226 C181.400855,130.894226 181.440855,130.642226 181.372855,130.377226 C181.303855,130.109226 181.145855,129.900226 180.896855,129.748226 C180.379855,129.428226 179.892855,129.551226 179.437855,130.117226 L178.667855,129.640226 C179.459855,128.637226 180.340855,128.433226 181.308855,129.033226 C181.775855,129.322226 182.074855,129.713226 182.209855,130.205226 C182.344855,130.697226 182.276855,131.164226 182.006855,131.603226 C181.832855,131.883226 181.590855,132.109226 181.275855,132.287226 C181.113855,132.379226 180.901855,132.476226 180.637855,132.578226 C180.373855,132.681226 180.051855,132.795226 179.668855,132.918226 L178.287855,133.369226 Z" id="Fill-96" fill="#000000" transform="translate(179.290041, 131.987185) rotate(-270.000000) translate(-179.290041, -131.987185) "></path>
            <polygon id="Fill-97" fill="#000000" transform="translate(133.947500, 103.972500) rotate(-270.000000) translate(-133.947500, -103.972500) " points="134.697 102.037 133.809 101.49 134.684 101.025 135.92 101.789 132.75 106.92 131.975 106.441"></polygon>
            <path d="M370.311,280.244 C370.311,279.924 370.202,279.653 369.979,279.431 C369.756,279.208 369.487,279.096 369.17,279.096 C368.854,279.096 368.584,279.206 368.362,279.428 C368.141,279.649 368.03,279.917 368.03,280.232 C368.03,280.548 368.141,280.815 368.362,281.038 C368.584,281.259 368.854,281.37 369.174,281.37 C369.487,281.37 369.754,281.259 369.975,281.038 C370.2,280.813 370.311,280.549 370.311,280.244 L370.311,280.244 Z M369.842,275.857 L370.51,276.357 L369.069,278.318 C369.147,278.307 369.213,278.3 369.268,278.295 C369.323,278.29 369.366,278.287 369.397,278.287 C369.887,278.287 370.311,278.474 370.666,278.849 C371.022,279.22 371.198,279.665 371.198,280.185 C371.198,280.737 371,281.212 370.604,281.608 C370.211,282.001 369.739,282.198 369.186,282.198 C368.639,282.198 368.161,282.003 367.748,281.616 C367.346,281.227 367.143,280.768 367.143,280.236 C367.143,279.76 367.34,279.255 367.733,278.721 L369.842,275.857 Z" id="Fill-98" fill="#000000" transform="translate(369.170500, 279.027500) rotate(-270.000000) translate(-369.170500, -279.027500) "></path>
            <path d="M326.0465,275.8635 L324.1875,275.8635 L323.8905,276.8595 C323.9355,276.8535 323.9785,276.8495 324.0175,276.8475 C324.0585,276.8435 324.0955,276.8435 324.1285,276.8435 C324.7145,276.8435 325.1945,277.0415 325.5695,277.4375 C325.9485,277.8305 326.1365,278.3345 326.1365,278.9495 C326.1365,279.5845 325.9235,280.1075 325.4955,280.5195 C325.0695,280.9295 324.5305,281.1365 323.8825,281.1365 C323.0835,281.1365 322.4525,280.7615 321.9915,280.0115 L322.6795,279.4295 C322.8705,279.7525 323.0625,279.9805 323.2535,280.1135 C323.4465,280.2425 323.6835,280.3085 323.9605,280.3085 C324.3255,280.3085 324.6325,280.1795 324.8785,279.9265 C325.1265,279.6625 325.2495,279.3435 325.2495,278.9685 C325.2495,278.5825 325.1285,278.2675 324.8825,278.0235 C324.6385,277.7695 324.3315,277.6445 323.9645,277.6445 C323.5565,277.6445 323.2025,277.8225 322.9055,278.1795 L322.6055,278.1795 L323.5545,275.0085 L326.0465,275.0085 L326.0465,275.8635 Z" id="Fill-99" fill="#000000" transform="translate(324.064000, 278.072500) rotate(-270.000000) translate(-324.064000, -278.072500) "></path>
            <path d="M278.9455,279.8125 L278.9455,277.7925 L277.5545,279.8125 L278.9455,279.8125 Z M279.8555,279.8125 L280.4965,279.8125 L280.4965,280.6405 L279.8555,280.6405 L279.8555,281.4965 L278.9455,281.4965 L278.9455,280.6405 L275.9845,280.6405 L279.8555,275.0155 L279.8555,279.8125 Z" id="Fill-100" fill="#000000" transform="translate(278.240500, 278.256000) rotate(-270.000000) translate(-278.240500, -278.256000) "></path>
            <path d="M231.9235,279.1425 L231.9235,278.3655 C232.3105,278.3655 232.5685,278.3225 232.7005,278.2365 C232.9395,278.0855 233.0565,277.8435 233.0565,277.5095 C233.0565,277.2515 232.9705,277.0425 232.7985,276.8805 C232.6305,276.7165 232.4095,276.6345 232.1385,276.6345 C231.8865,276.6345 231.6915,276.6975 231.5525,276.8185 C231.4195,276.9435 231.3215,277.1545 231.2555,277.4515 L230.3495,277.4515 C230.4435,276.8845 230.6365,276.4685 230.9275,276.2035 C231.2205,275.9395 231.6265,275.8065 232.1505,275.8065 C232.6795,275.8065 233.1115,275.9625 233.4435,276.2755 C233.7775,276.5855 233.9435,276.9865 233.9435,277.4745 C233.9435,278.0275 233.7245,278.4565 233.2865,278.7635 C233.7905,279.0585 234.0405,279.5375 234.0405,280.1975 C234.0405,280.7405 233.8595,281.1815 233.4915,281.5255 C233.1265,281.8695 232.6575,282.0405 232.0875,282.0405 C231.3605,282.0405 230.8215,281.7755 230.4705,281.2405 C230.3255,281.0175 230.2325,280.7065 230.1935,280.3105 L231.0715,280.3105 C231.1185,280.6035 231.2345,280.8265 231.4135,280.9805 C231.5955,281.1365 231.8315,281.2125 232.1225,281.2125 C232.4175,281.2125 232.6615,281.1155 232.8535,280.9195 C233.0465,280.7205 233.1425,280.4665 233.1425,280.1585 C233.1425,279.7515 232.9975,279.4625 232.7085,279.2905 C232.5405,279.1935 232.2785,279.1425 231.9235,279.1425" id="Fill-101" fill="#000000" transform="translate(232.117000, 278.923500) rotate(-270.000000) translate(-232.117000, -278.923500) "></path>
            <path d="M185.8455,280.2365 L188.0915,280.2365 L188.0915,281.0915 L184.0405,281.0915 L186.1345,278.5565 C186.3415,278.3045 186.5135,278.0865 186.6525,277.9005 C186.7925,277.7165 186.8985,277.5605 186.9705,277.4355 C187.1185,277.1915 187.1935,276.9705 187.1935,276.7755 C187.1935,276.4945 187.0955,276.2595 186.8965,276.0685 C186.6995,275.8795 186.4545,275.7835 186.1615,275.7835 C185.5525,275.7835 185.2045,276.1445 185.1155,276.8655 L184.2085,276.8655 C184.3555,275.5955 184.9975,274.9595 186.1345,274.9595 C186.6855,274.9595 187.1465,275.1345 187.5175,275.4825 C187.8925,275.8325 188.0795,276.2635 188.0795,276.7795 C188.0795,277.1075 187.9935,277.4295 187.8185,277.7445 C187.7305,277.9085 187.6015,278.1035 187.4295,278.3285 C187.2595,278.5545 187.0445,278.8205 186.7835,279.1275 L185.8455,280.2365 Z" id="Fill-102" fill="#000000" transform="translate(186.066000, 278.025500) rotate(-270.000000) translate(-186.066000, -278.025500) "></path>
            <polygon id="Fill-103" fill="#000000" transform="translate(140.015500, 277.976500) rotate(-270.000000) translate(-140.015500, -277.976500) " points="140.082 275.816 139.039 275.816 139.539 274.961 140.992 274.961 140.992 280.992 140.082 280.992"></polygon>
            <path d="M92.8845,279.0955 C92.8845,279.7635 92.9995,280.3205 93.2325,280.7635 C93.4625,281.1975 93.7595,281.4155 94.1165,281.4155 C94.4745,281.4155 94.7695,281.1975 95.0035,280.7635 C95.2365,280.3295 95.3535,279.7845 95.3535,279.1265 C95.3535,278.4665 95.2365,277.9195 95.0035,277.4865 C94.7695,277.0525 94.4745,276.8375 94.1165,276.8375 C93.7635,276.8375 93.4705,277.0525 93.2365,277.4865 C93.0015,277.9155 92.8845,278.4505 92.8845,279.0955 M91.9865,279.0915 C91.9865,278.1305 92.2105,277.3635 92.6575,276.7905 C93.0605,276.2715 93.5445,276.0135 94.1145,276.0135 C94.6855,276.0135 95.1715,276.2715 95.5725,276.7905 C96.0215,277.3635 96.2435,278.1425 96.2435,279.1305 C96.2435,280.1155 96.0215,280.8925 95.5725,281.4665 C95.1715,281.9845 94.6875,282.2435 94.1185,282.2435 C93.5525,282.2435 93.0645,281.9845 92.6575,281.4665 C92.2105,280.8925 91.9865,280.1015 91.9865,279.0915" id="Fill-104" fill="#000000" transform="translate(94.115000, 279.128500) rotate(-270.000000) translate(-94.115000, -279.128500) "></path>
            <path d="M82.2318574,223.758395 C82.2318574,223.246656 82.0946352,222.841569 81.8206705,222.544091 C81.5395089,222.242308 81.1681453,222.092134 80.7075392,222.092134 C80.2435745,222.092134 79.8726907,222.240874 79.5948877,222.538352 C79.3170847,222.836308 79.1782311,223.234221 79.1782311,223.731613 C79.1782311,224.229482 79.3170847,224.627395 79.5948877,224.925352 C79.8760493,225.226656 80.2469331,225.377308 80.7075392,225.377308 C81.1614281,225.377308 81.5284735,225.226656 81.8096352,224.925352 C82.0912766,224.624048 82.2318574,224.234743 82.2318574,223.758395 M83.4447867,223.779439 C83.4447867,224.51883 83.1794584,225.147743 82.6488018,225.666656 C82.1176655,226.185091 81.4708978,226.444787 80.7075392,226.444787 C79.9413018,226.444787 79.2906958,226.183656 78.7560089,225.661395 C78.2287109,225.139134 77.964822,224.497787 77.964822,223.737352 C77.964822,222.969743 78.2306301,222.326482 78.7612867,221.808048 C79.2959735,221.292961 79.9518574,221.035178 80.7286503,221.035178 C81.4992059,221.035178 82.1435745,221.297743 82.6641554,221.82383 C83.1842564,222.342265 83.4447867,222.994134 83.4447867,223.779439" id="Fill-181" fill="#000000" transform="translate(80.704804, 223.739982) rotate(-450.000000) translate(-80.704804, -223.739982) "></path>
            <path d="M77.6266746,230.901168 C77.6266746,231.391385 77.7600584,231.791211 78.0273059,232.09969 C78.2979119,232.411037 78.6390483,232.56695 79.050715,232.56695 C79.4863715,232.56695 79.8399827,232.416776 80.1105887,232.115472 C80.3811948,231.81369 80.5164978,231.41769 80.5164978,230.927472 C80.5164978,230.447298 80.3811948,230.051298 80.1105887,229.738994 C79.8433412,229.434342 79.4921291,229.281776 79.0559928,229.281776 C78.6443261,229.281776 78.3051089,229.436255 78.0373816,229.744255 C77.763417,230.052733 77.6266746,230.438211 77.6266746,230.901168 L77.6266746,230.901168 Z M80.4478867,225.586255 L81.6349069,225.586255 L81.6349069,233.492863 L80.4478867,233.492863 L80.4478867,232.935211 C79.9800837,233.401516 79.4499069,233.634907 78.8554372,233.634907 C78.1486948,233.634907 77.5666998,233.375211 77.1094523,232.856776 C76.6454877,232.34169 76.4137453,231.691255 76.4137453,230.906429 C76.4137453,230.138342 76.6440483,229.498907 77.1041746,228.987646 C77.561422,228.479255 78.1381392,228.225298 78.8343261,228.225298 C79.4359928,228.225298 79.9738463,228.465385 80.4478867,228.945081 L80.4478867,225.586255 Z" id="Fill-182" fill="#000000" transform="translate(79.024326, 229.610581) rotate(-450.000000) translate(-79.024326, -229.610581) "></path>
            <polygon id="Fill-183" fill="#000000" transform="translate(81.498239, 233.105455) rotate(-450.000000) translate(-81.498239, -233.105455) " points="80.9104866 233.623172 80.9104866 229.607215 82.0975068 229.607215 82.0975068 233.623172 82.6036937 233.623172 82.6036937 234.727476 82.0975068 234.727476 82.0975068 236.603694 80.9104866 236.603694 80.9104866 234.727476 80.3927846 234.727476 80.3927846 233.623172"></polygon>
            <path d="M81.2777733,231.901671 L82.4647935,231.901671 L82.4647935,237.021932 L81.2777733,237.021932 L81.2777733,231.901671 Z M82.6437581,238.88141 C82.6437581,239.088497 82.5684298,239.266889 82.4168137,239.418019 C82.2661571,239.568671 82.0847935,239.643758 81.8736824,239.643758 C81.6592127,239.643758 81.4764096,239.568671 81.3252733,239.418019 C81.1746167,239.270715 81.0983288,239.089932 81.0983288,238.876628 C81.0983288,238.662367 81.1746167,238.480628 81.3252733,238.329497 C81.4730511,238.178845 81.6544147,238.103758 81.8684046,238.103758 C82.0833541,238.103758 82.2661571,238.178845 82.4168137,238.329497 C82.5684298,238.480628 82.6437581,238.66428 82.6437581,238.88141 L82.6437581,238.88141 Z" id="Fill-184" fill="#000000" transform="translate(81.871043, 235.772715) rotate(-450.000000) translate(-81.871043, -235.772715) "></path>
            <path d="M82.2317614,239.758299 C82.2317614,239.24656 82.095019,238.841473 81.8205745,238.543995 C81.5394129,238.242212 81.1685291,238.092039 80.707923,238.092039 C80.2434786,238.092039 79.8725948,238.240778 79.5952715,238.538256 C79.3174685,238.836212 79.1783271,239.234125 79.1783271,239.731517 C79.1783271,240.229386 79.3174685,240.627299 79.5952715,240.925256 C79.8764331,241.22656 80.247317,241.377212 80.707923,241.377212 C81.1618119,241.377212 81.5288574,241.22656 81.810019,240.925256 C82.0916604,240.623952 82.2317614,240.234647 82.2317614,239.758299 M83.4446907,239.779343 C83.4446907,240.518734 83.1798422,241.147647 82.6487059,241.66656 C82.1180493,242.184995 81.4708018,242.444691 80.707923,242.444691 C79.9416857,242.444691 79.2910796,242.18356 78.7565847,241.661299 C78.2288069,241.139039 77.964918,240.497691 77.964918,239.737256 C77.964918,238.969647 78.2312059,238.326386 78.7618624,237.807952 C79.2963574,237.292865 79.9517614,237.035082 80.7290341,237.035082 C81.4991099,237.035082 82.1439584,237.297647 82.6640594,237.823734 C83.1846402,238.342169 83.4446907,238.994039 83.4446907,239.779343" id="Fill-185" fill="#000000" transform="translate(80.704804, 239.739886) rotate(-450.000000) translate(-80.704804, -239.739886) "></path>
            <path d="M82.8435007,247.701457 L81.6521623,247.701457 L81.6521623,247.228457 C81.2366572,247.638327 80.7698138,247.843501 80.2487532,247.843501 C79.6514047,247.843501 79.1855209,247.655544 78.8515815,247.280588 C78.5627431,246.961588 78.4188037,246.44124 78.4188037,245.719544 L78.4188037,242.581196 L79.6111017,242.581196 L79.6111017,245.43737 C79.6111017,245.940979 79.6811522,246.289631 79.821733,246.481892 C79.9584754,246.677501 80.20893,246.775544 80.5706976,246.775544 C80.9646118,246.775544 81.244334,246.646414 81.4093845,246.387675 C81.5715562,246.132283 81.6521623,245.685588 81.6521623,245.048544 L81.6521623,242.581196 L82.8435007,242.581196 L82.8435007,247.701457 Z" id="Fill-186" fill="#000000" transform="translate(80.631152, 245.212348) rotate(-450.000000) translate(-80.631152, -245.212348) "></path>
            <path d="M82.1026958,250.628754 C82.1026958,250.138058 81.9707513,249.73871 81.7073422,249.429754 C81.4362564,249.117928 81.09512,248.962493 80.6839331,248.962493 C80.2444382,248.962493 79.8893877,249.112667 79.6183018,249.41445 C79.3476958,249.726276 79.2123927,250.121797 79.2123927,250.601971 C79.2123927,251.082624 79.3476958,251.478145 79.6183018,251.79045 C79.8893877,252.095102 80.2405998,252.247667 80.6733776,252.247667 C81.0812059,252.247667 81.4223422,252.093667 81.6963069,251.785189 C81.9673927,251.473363 82.1026958,251.087884 82.1026958,250.628754 L82.1026958,250.628754 Z M79.2862816,253.173102 L78.0944634,253.173102 L78.0944634,248.053319 L79.2862816,248.053319 L79.2862816,248.588971 C79.7751958,248.133667 80.3005745,247.905537 80.8633776,247.905537 C81.5734786,247.905537 82.1607513,248.161406 82.624716,248.673145 C83.085322,249.195406 83.3151453,249.847276 83.3151453,250.628754 C83.3151453,251.395884 83.085322,252.035319 82.624716,252.547537 C82.1641099,253.059276 81.5878725,253.315145 80.8945644,253.315145 C80.2967362,253.315145 79.7608018,253.069797 79.2862816,252.579102 L79.2862816,253.173102 Z" id="Fill-187" fill="#000000" transform="translate(80.704804, 250.610341) rotate(-450.000000) translate(-80.704804, -250.610341) "></path>
            <polygon id="Fill-188" fill="#000000" transform="translate(81.497283, 254.593510) rotate(-450.000000) translate(-81.497283, -254.593510) " points="80.9037725 258.090793 82.0907927 258.090793 82.0907927 251.096227 80.9037725 251.096227"></polygon>
            <path d="M79.4641531,256.738153 C79.4641531,256.934718 79.3926632,257.104501 79.2477642,257.247979 C79.1043046,257.391936 78.9315773,257.464153 78.7315015,257.464153 C78.530946,257.464153 78.3582187,257.391936 78.2147591,257.247979 C78.0708197,257.104501 77.9978904,256.932805 77.9978904,256.732892 C77.9978904,256.529631 78.0708197,256.356023 78.2147591,256.212544 C78.3548601,256.072414 78.5275874,256.00211 78.7315015,256.00211 C78.9387743,256.00211 79.1129409,256.072414 79.2535217,256.212544 C79.3941025,256.352675 79.4641531,256.528197 79.4641531,256.738153" id="Fill-189" fill="#000000" transform="translate(78.731022, 256.733131) rotate(-450.000000) translate(-78.731022, -256.733131) "></path>
            <path d="M81.2775334,254.901911 L82.4645536,254.901911 L82.4645536,260.022172 L81.2775334,260.022172 L81.2775334,254.901911 Z M82.643998,261.88165 C82.643998,262.088737 82.5677101,262.267128 82.4165738,262.418259 C82.2659172,262.568911 82.0845536,262.643998 81.8734425,262.643998 C81.6594526,262.643998 81.4766495,262.568911 81.3255132,262.418259 C81.173897,262.270955 81.0980889,262.090172 81.0980889,261.876868 C81.0980889,261.662607 81.173897,261.480868 81.3255132,261.329737 C81.4728112,261.179085 81.653695,261.103998 81.8681647,261.103998 C82.0831142,261.103998 82.2659172,261.179085 82.4165738,261.329737 C82.5677101,261.480868 82.643998,261.66452 82.643998,261.88165 L82.643998,261.88165 Z" id="Fill-190" fill="#000000" transform="translate(81.871043, 258.772955) rotate(-450.000000) translate(-81.871043, -258.772955) "></path>
            <path d="M79.2042362,263.522523 L80.185423,263.002175 C80.339918,263.313523 80.5318372,263.469914 80.760221,263.469914 C80.869615,263.469914 80.962216,263.434045 81.0394634,263.362306 C81.1171907,263.290567 81.1555745,263.198741 81.1555745,263.086828 C81.1555745,262.890741 80.9271907,262.696088 80.470423,262.503828 C79.8409281,262.234567 79.4167867,261.985871 79.1989584,261.758697 C78.9811301,261.531045 78.872216,261.22448 78.872216,260.83948 C78.872216,260.345914 79.0545392,259.932697 79.4206251,259.600306 C79.7756756,259.284654 80.204615,259.127784 80.7074432,259.127784 C81.5691604,259.127784 82.1785038,259.546741 82.5373927,260.383697 L81.525019,260.851914 C81.3844382,260.606567 81.2769634,260.450654 81.2030745,260.383697 C81.0591352,260.250741 80.8868877,260.184741 80.6863321,260.184741 C80.285221,260.184741 80.0851453,260.36648 80.0851453,260.731393 C80.0851453,260.941828 80.24012,261.137914 80.5491099,261.320132 C80.6690594,261.379914 80.7885291,261.437306 80.9079988,261.493741 C81.0274685,261.549219 81.1488574,261.607088 81.2721655,261.666871 C81.6161806,261.835219 81.8589584,262.003567 81.9995392,262.171914 C82.1785038,262.385219 82.2687059,262.660219 82.2687059,262.996914 C82.2687059,263.442175 82.1151705,263.810436 81.810019,264.100741 C81.4967109,264.391523 81.1171907,264.537393 80.6704988,264.537393 C80.0131756,264.537393 79.5242614,264.198784 79.2042362,263.522523" id="Fill-191" fill="#000000" transform="translate(80.704804, 261.832588) rotate(-450.000000) translate(-80.704804, -261.832588) "></path>
            <path d="M81.1856707,223.051706 L80.3623374,222.736054 C80.6502162,222.050228 80.8517313,221.416532 80.9678424,220.835923 C81.025898,220.541793 81.0695596,220.23188 81.0983475,219.907619 C81.1271354,219.582402 81.1415293,219.228489 81.1415293,218.844923 C81.1415293,218.458489 81.1271354,218.102663 81.0983475,217.778402 C81.0695596,217.453663 81.025898,217.14375 80.9678424,216.849619 C80.8546101,216.271402 80.653095,215.639619 80.3623374,214.953315 L81.1856707,214.637663 C81.7628677,215.838576 82.0517061,217.241793 82.0517061,218.844923 C82.0517061,220.448532 81.7628677,221.850315 81.1856707,223.051706" id="Fill-192" fill="#000000" transform="translate(81.207022, 218.844684) rotate(-450.000000) translate(-81.207022, -218.844684) "></path>
            <path d="M81.2266935,260.635504 L82.049547,260.951156 C81.7592692,261.636982 81.5572743,262.269243 81.4440419,262.84746 C81.3255318,263.425199 81.2665167,264.09046 81.2665167,264.842286 C81.2665167,265.58933 81.3255318,266.252677 81.4440419,266.833286 C81.5601531,267.414373 81.7616682,268.048069 82.049547,268.733895 L81.2266935,269.049547 C80.6518955,267.848156 80.3644965,266.445895 80.3644965,264.842286 C80.3644965,263.239156 80.6518955,261.836895 81.2266935,260.635504" id="Fill-193" fill="#000000" transform="translate(81.207022, 264.842525) rotate(-450.000000) translate(-81.207022, -264.842525) "></path>
            <path d="M254.95805,101.04195 L254.95805,467.95805" id="Stroke-2" stroke="#FF0000" transform="translate(255.458050, 284.500000) rotate(-270.000000) translate(-255.458050, -284.500000) "></path>
            <path d="M68.550607,109.660135 L67.4554898,109.660135 L67.9804898,108.765995 L69.5062711,108.765995 L69.5062711,115.098807 L68.550607,115.098807 L68.550607,109.660135 Z M72.1854314,114.639432 C72.1854314,114.486306 72.2414855,114.35369 72.3535955,114.24158 C72.4657054,114.129471 72.5996884,114.073416 72.7555486,114.073416 C72.9114087,114.073416 73.0453918,114.129471 73.1575017,114.24158 C73.2696117,114.35369 73.3256658,114.487673 73.3256658,114.643534 C73.3256658,114.802128 73.2696117,114.937478 73.1575017,115.049588 C73.0481262,115.158964 72.9141431,115.213651 72.7555486,115.213651 C72.5942197,115.213651 72.4588695,115.158964 72.3494939,115.049588 C72.2401184,114.940213 72.1854314,114.803495 72.1854314,114.639432 Z M72.1854314,111.555057 C72.1854314,111.404666 72.2414855,111.273417 72.3535955,111.161307 C72.4657054,111.049197 72.5996884,110.993143 72.7555486,110.993143 C72.9114087,110.993143 73.0453918,111.049197 73.1575017,111.161307 C73.2696117,111.273417 73.3256658,111.4074 73.3256658,111.56326 C73.3256658,111.721855 73.2696117,111.857205 73.1575017,111.969315 C73.0481262,112.07869 72.9141431,112.133377 72.7555486,112.133377 C72.5969541,112.133377 72.4616038,112.077323 72.3494939,111.965213 C72.2401184,111.855838 72.1854314,111.71912 72.1854314,111.555057 Z M76.3238095,109.660135 L75.2286923,109.660135 L75.7536923,108.765995 L77.2794736,108.765995 L77.2794736,115.098807 L76.3238095,115.098807 L76.3238095,109.660135 Z M78.9659048,114.639432 C78.9659048,114.486306 79.021959,114.35369 79.1340689,114.24158 C79.2461788,114.129471 79.3801619,114.073416 79.536022,114.073416 C79.6918822,114.073416 79.8258652,114.129471 79.9379752,114.24158 C80.0500851,114.35369 80.1061392,114.487673 80.1061392,114.643534 C80.1061392,114.802128 80.0500851,114.937478 79.9379752,115.049588 C79.8285996,115.158964 79.6946166,115.213651 79.536022,115.213651 C79.3746931,115.213651 79.2393429,115.158964 79.1299673,115.049588 C79.0205918,114.940213 78.9659048,114.803495 78.9659048,114.639432 Z M81.7587867,109.660135 L80.6636695,109.660135 L81.1886695,108.765995 L82.7144508,108.765995 L82.7144508,115.098807 L81.7587867,115.098807 L81.7587867,109.660135 Z M86.4886495,108.54451 L87.1900167,109.06951 L85.6765402,111.128495 C85.7585718,111.117557 85.8282977,111.109354 85.8857198,111.103885 C85.943142,111.098416 85.9882587,111.095682 86.0210714,111.095682 C86.5351365,111.095682 86.979468,111.292555 87.3540792,111.686307 C87.7259561,112.07459 87.9118917,112.542164 87.9118917,113.089041 C87.9118917,113.668732 87.7040813,114.166383 87.2884542,114.58201 C86.8755615,114.994903 86.3792774,115.201346 85.799587,115.201346 C85.2253654,115.201346 84.7222454,114.997637 84.290212,114.590213 C83.8663818,114.182789 83.6544698,113.700177 83.6544698,113.142362 C83.6544698,112.641969 83.8609131,112.111505 84.2738058,111.550955 L86.4886495,108.54451 Z M86.980837,113.150565 C86.980837,112.814235 86.8646273,112.529863 86.6322042,112.29744 C86.3970468,112.062282 86.1140418,111.944705 85.7831808,111.944705 C85.4495854,111.944705 85.1665804,112.060915 84.9341573,112.293338 C84.7017343,112.525761 84.5855245,112.807399 84.5855245,113.13826 C84.5855245,113.469121 84.7017343,113.750759 84.9341573,113.983182 C85.1665804,114.215605 85.4509525,114.331815 85.7872823,114.331815 C86.115409,114.331815 86.3956796,114.215605 86.6281027,113.983182 C86.8632601,113.748025 86.980837,113.470488 86.980837,113.150565 Z M88.9866783,109.660135 L87.8915611,109.660135 L88.4165611,108.765995 L89.9423423,108.765995 L89.9423423,115.098807 L88.9866783,115.098807 L88.9866783,109.660135 Z M92.0923617,111.805252 C91.6275156,111.477126 91.3950961,111.03006 91.3950961,110.464041 C91.3950961,109.949976 91.5714615,109.520684 91.9241977,109.176151 C92.2796682,108.831618 92.7212653,108.659354 93.2490023,108.659354 C93.774005,108.659354 94.2115006,108.831618 94.5615023,109.176151 C94.9115041,109.517949 95.0865023,109.948609 95.0865023,110.468143 C95.0865023,111.012286 94.85545,111.456618 94.3933383,111.801151 C94.6476364,111.93787 94.8472438,112.137478 94.9921664,112.399979 C95.1398234,112.66248 95.2136508,112.95779 95.2136508,113.285916 C95.2136508,113.846466 95.0304495,114.305836 94.6640414,114.664041 C94.2976333,115.022246 93.8286927,115.201346 93.2572055,115.201346 C92.6720463,115.201346 92.1894339,115.020879 91.8093539,114.65994 C91.4265395,114.299001 91.2351352,113.845099 91.2351352,113.298221 C91.2351352,112.58728 91.5208745,112.089629 92.0923617,111.805252 Z M92.2933383,110.45994 C92.2933383,110.730644 92.3849389,110.957595 92.568143,111.140799 C92.7540814,111.326738 92.9782979,111.419705 93.2407992,111.419705 C93.5005661,111.419705 93.7234155,111.326738 93.9093539,111.140799 C94.0952923,110.954861 94.1882602,110.732011 94.1882602,110.472245 C94.1882602,110.212478 94.0952923,109.989628 93.9093539,109.80369 C93.7234155,109.617751 93.5005661,109.524784 93.2407992,109.524784 C92.9810323,109.524784 92.758183,109.617751 92.5722445,109.80369 C92.3863061,109.989628 92.2933383,110.208376 92.2933383,110.45994 Z M92.174393,113.265409 C92.174393,113.557988 92.2755638,113.809548 92.4779086,114.020096 C92.6829877,114.22791 92.9318134,114.331815 93.224393,114.331815 C93.5142382,114.331815 93.7616966,114.229277 93.9667758,114.024198 C94.1718549,113.816384 94.274393,113.567558 94.274393,113.277713 C94.274393,112.985134 94.1718549,112.736308 93.9667758,112.531229 C93.7616966,112.32615 93.5142382,112.223612 93.224393,112.223612 C92.9372822,112.223612 92.6898237,112.32615 92.4820102,112.531229 C92.276931,112.736308 92.174393,112.981032 92.174393,113.265409 Z" id="GoldenRatio1:1.1618" fill="#000000" transform="translate(81.334570, 111.879080) rotate(-270.000000) translate(-81.334570, -111.879080) "></path>
        </g>
    </g>
</svg>