<?xml version="1.0" encoding="UTF-8"?>
<svg width="595px" height="842px" viewBox="0 0 595 842" version="1.1" xmlns="http://www.w3.org/2000/svg" xmlns:xlink="http://www.w3.org/1999/xlink">
    <!-- Generator: Sketch 43.2 (39069) - http://www.bohemiancoding.com/sketch -->
    <title>A4</title>
    <desc>Created with Sketch.</desc>
    <defs></defs>
    <g id="Page-1" stroke="none" stroke-width="1" fill="none" fill-rule="evenodd">
        <g id="A4">
            <path d="M271,277.96294 C271,263.968289 282.054265,252 296.96294,252" id="Line" stroke="#0000FF" stroke-linecap="square"></path>
            <path d="M114,240 C123.663854,249.783067 129.365781,263.238855 129.168822,277.767761" id="Line" stroke="#0000FF" stroke-linecap="square"></path>
            <path d="M76,277.897197 L296.826369,150" id="Line" stroke="#0000FF" stroke-linecap="square"></path>
            <path d="M215.914592,136.910889 L155.569408,358.009516" id="Line" stroke="#0000FF" stroke-linecap="square" transform="translate(186.077483, 247.988372) scale(1, -1) rotate(-270.000000) translate(-186.077483, -247.988372) "></path>
            <ellipse id="Oval-2" stroke="#FF0000" fill="#FFFFFF" transform="translate(283.942340, 220.943510) scale(1, -1) rotate(-270.000000) translate(-283.942340, -220.943510) " cx="283.94234" cy="220.94351" rx="3.94351037" ry="3.94234005"></ellipse>
            <ellipse id="Oval-2" stroke="#FF0000" fill="#FFFFFF" transform="translate(114.942340, 256.943510) scale(1, -1) rotate(-270.000000) translate(-114.942340, -256.943510) " cx="114.94234" cy="256.94351" rx="3.94351037" ry="3.94234005"></ellipse>
            <ellipse id="Oval-2" stroke="#FF0000" fill="#FFFFFF" cx="155.94351" cy="256.94234" rx="3.94351037" ry="3.94234005"></ellipse>
            <path d="M297.424899,278.060849 L214,141" id="Line" stroke="#0000FF" stroke-linecap="square"></path>
            <ellipse id="Oval-2" stroke="#FF0000" fill="#FFFFFF" cx="283.94351" cy="256.94234" rx="3.94351037" ry="3.94234005"></ellipse>
            <path d="M122.356363,236.105001 L124.2515,236.105001 L124.2515,240.136107 L125.000421,240.136107 L125.000421,241.231764 L124.2515,241.231764 L124.2515,242.336552 L123.013952,242.336552 L123.013952,241.231764 L120,241.231764 L120,240.117846 C120.716955,238.76197 121.552642,237.433485 122.356363,236.105001 Z M121.178181,240.136107 L123.013952,240.136107 L123.013952,237.118484 L122.95002,237.118484 C122.342663,238.072619 121.721606,239.076971 121.178181,240.10415 L121.178181,240.136107 Z M126.009639,240.688501 C126.041605,241.683723 126.918391,242.455249 128.251837,242.455249 C129.667481,242.455249 130.631032,241.583288 130.631032,240.227412 C130.631032,238.912623 129.699447,238.19588 128.630864,238.19588 C127.923042,238.19588 127.498348,238.529143 127.37505,238.730013 L127.311118,238.730013 L127.438983,237.200658 L130.274838,237.200658 L130.274838,236.105001 L126.393233,236.105001 L126.137503,239.757192 L127.292852,239.757192 C127.420716,239.533495 127.735811,239.223059 128.27467,239.223059 C128.872893,239.223059 129.361519,239.638496 129.361519,240.273064 C129.361519,240.966981 128.845494,241.382417 128.270103,241.382417 C127.767778,241.382417 127.297418,241.131329 127.210653,240.688501 L126.009639,240.688501 Z M132.736233,238.743709 C131.969045,238.743709 131.370821,238.141097 131.370821,237.369572 C131.370821,236.598046 131.964478,236 132.736233,236 C133.50342,236 134.097078,236.598046 134.097078,237.369572 C134.097078,238.141097 133.498854,238.743709 132.736233,238.743709 Z M132.740799,237.976749 C133.078727,237.976749 133.34359,237.698269 133.34359,237.369572 C133.34359,237.036309 133.078727,236.76696 132.740799,236.76696 C132.407438,236.76696 132.128875,237.036309 132.128875,237.369572 C132.128875,237.698269 132.407438,237.976749 132.740799,237.976749 Z" id="45째" fill="#000000"></path>
            <path d="M130.607441,253.656779 L131.301564,253.656779 C131.95002,253.656779 132.35188,254.031129 132.356447,254.524175 C132.361014,255.040047 131.931754,255.405266 131.274164,255.400701 C130.67594,255.400701 130.232981,255.081134 130.205581,254.652002 L129,254.652002 C129.022833,255.624398 129.821987,256.464402 131.274164,256.464402 C132.561944,256.464402 133.676193,255.811572 133.66706,254.592653 C133.65336,253.615692 132.904438,253.168299 132.329048,253.113516 L132.329048,253.040472 C132.78114,252.971993 133.493529,252.520035 133.479829,251.634378 C133.46613,250.684808 132.639576,249.995457 131.315264,250.000023 C129.927019,250.004588 129.141564,250.753287 129.105032,251.794162 L130.328879,251.794162 C130.351712,251.406116 130.712473,251.040897 131.269598,251.040897 C131.799323,251.040897 132.19205,251.355899 132.196616,251.821553 C132.196616,252.278077 131.817589,252.62047 131.269598,252.62047 L130.607441,252.62047 L130.607441,253.656779 Z M136.055389,253.086124 L136.055389,253.369169 C136.055389,254.674828 136.489215,255.350483 137.137672,255.350483 C137.786128,255.350483 138.219955,254.670262 138.219955,253.369169 L138.219955,253.086124 C138.219955,251.785031 137.786128,251.113941 137.137672,251.113941 C136.489215,251.113941 136.055389,251.780466 136.055389,253.086124 Z M134.735643,253.373734 L134.735643,253.081559 C134.735643,251.250898 135.621562,250.000023 137.151371,250.000023 C138.690314,250.000023 139.539701,251.241768 139.539701,253.081559 L139.539701,253.373734 C139.539701,255.10396 138.72228,256.464402 137.128539,256.464402 C135.589596,256.464402 134.735643,255.19983 134.735643,253.373734 Z M141.717966,252.752862 C140.950778,252.752862 140.352554,252.15025 140.352554,251.378725 C140.352554,250.607199 140.946212,250.009153 141.717966,250.009153 C142.485154,250.009153 143.078811,250.607199 143.078811,251.378725 C143.078811,252.15025 142.480587,252.752862 141.717966,252.752862 Z M141.722533,251.985902 C142.060461,251.985902 142.325323,251.707422 142.325323,251.378725 C142.325323,251.045462 142.060461,250.776113 141.722533,250.776113 C141.389171,250.776113 141.110609,251.045462 141.110609,251.378725 C141.110609,251.707422 141.389171,251.985902 141.722533,251.985902 Z" id="30째" fill="#000000"></path>
            <path d="M194.409276,263.72203 L194.409276,257.490478 L193.098663,257.490478 L191.623653,258.535918 L191.623653,259.773098 L193.034731,258.782441 L193.098663,258.782441 L193.098663,263.72203 L194.409276,263.72203 Z M195.815787,262.215501 C195.815787,262.713112 196.185681,263.028113 196.642341,263.028113 C197.1127,263.028113 197.482594,262.713112 197.482594,262.215501 C197.482594,261.713324 197.117267,261.389192 196.642341,261.389192 C196.185681,261.389192 195.815787,261.704194 195.815787,262.215501 Z M195.815787,259.161355 C195.815787,259.658967 196.185681,259.973968 196.642341,259.973968 C197.1127,259.973968 197.482594,259.658967 197.482594,259.161355 C197.482594,258.659179 197.117267,258.335047 196.642341,258.335047 C196.185681,258.335047 195.815787,258.650049 195.815787,259.161355 Z M201.396166,263.72203 L201.396166,257.490478 L200.085553,257.490478 L198.610543,258.535918 L198.610543,259.773098 L200.021621,258.782441 L200.085553,258.782441 L200.085553,263.72203 L201.396166,263.72203 Z M202.921408,263.000722 C202.921408,263.502898 203.291303,263.813334 203.747962,263.813334 C204.218321,263.813334 204.583649,263.502898 204.583649,263.000722 C204.583649,262.498545 204.218321,262.174413 203.747962,262.174413 C203.286736,262.174413 202.921408,262.49398 202.921408,263.000722 Z M210.269059,258.992442 L209.017812,258.992442 C208.931047,258.723092 208.638785,258.453743 208.12276,258.453743 C207.314472,258.453743 206.839547,259.353096 206.871513,260.48984 L206.949145,260.48984 C207.136375,260.065273 207.606735,259.645271 208.437855,259.645271 C209.428806,259.645271 210.396924,260.320926 210.396924,261.64028 C210.396924,263.032679 209.410539,263.836161 208.072527,263.836161 C207.26424,263.836161 206.524452,263.53942 206.072359,262.790721 C205.780097,262.311371 205.601999,261.64028 205.601999,260.736363 C205.601999,258.490265 206.588384,257.380912 208.13646,257.380912 C209.520138,257.380912 210.22796,258.248308 210.269059,258.992442 Z M207.017644,261.695063 C207.017644,262.361588 207.47887,262.767895 208.072527,262.767895 C208.675318,262.767895 209.127411,262.39811 209.127411,261.699629 C209.127411,261.019408 208.643352,260.649624 208.077094,260.649624 C207.446904,260.649624 207.017644,261.083321 207.017644,261.695063 Z M214.310496,263.72203 L214.310496,257.490478 L212.999883,257.490478 L211.524873,258.535918 L211.524873,259.773098 L212.935951,258.782441 L212.999883,258.782441 L212.999883,263.72203 L214.310496,263.72203 Z M218.388465,262.872895 C219.032354,262.872895 219.530113,262.48485 219.530113,261.905064 C219.530113,261.325279 219.032354,260.932668 218.388465,260.932668 C217.740008,260.932668 217.246816,261.325279 217.246816,261.905064 C217.246816,262.48485 217.740008,262.872895 218.388465,262.872895 Z M218.388465,260.028751 C218.931889,260.028751 219.33375,259.681793 219.33375,259.184182 C219.33375,258.686571 218.931889,258.348743 218.388465,258.348743 C217.84504,258.348743 217.443179,258.686571 217.443179,259.184182 C217.443179,259.681793 217.84504,260.028751 218.388465,260.028751 Z M218.374765,263.840726 C216.881488,263.840726 215.931637,263.087461 215.931637,262.0055 C215.931637,261.010277 216.671425,260.572014 217.246816,260.462449 L217.246816,260.403101 C216.694258,260.234187 216.178233,259.814185 216.178233,259.019833 C216.178233,258.074828 217.050452,257.376347 218.388465,257.376347 C219.726477,257.376347 220.59413,258.074828 220.59413,259.019833 C220.59413,259.823315 220.064405,260.238752 219.525547,260.403101 L219.525547,260.462449 C220.100938,260.572014 220.840726,261.014843 220.840726,262.000934 C220.840726,263.082896 219.872608,263.840726 218.374765,263.840726 Z" id="1:1.618" fill="#000000" transform="translate(206.232190, 260.608536) rotate(-90.000000) translate(-206.232190, -260.608536) "></path>
            <path d="M245.785623,272.345705 L245.785623,266.114154 L244.47501,266.114154 L243,267.159593 L243,268.396773 L244.411078,267.406116 L244.47501,267.406116 L244.47501,272.345705 L245.785623,272.345705 Z M248.945706,269.656779 L249.639829,269.656779 C250.288285,269.656779 250.690145,270.031129 250.694712,270.524175 C250.699279,271.040047 250.270019,271.405266 249.612429,271.400701 C249.014205,271.400701 248.571246,271.081134 248.543846,270.652002 L247.338265,270.652002 C247.361098,271.624398 248.160252,272.464402 249.612429,272.464402 C250.900209,272.464402 252.014458,271.811572 252.005325,270.592653 C251.991625,269.615692 251.242703,269.168299 250.667312,269.113516 L250.667312,269.040472 C251.119405,268.971993 251.831794,268.520035 251.818094,267.634378 C251.804395,266.684808 250.977841,265.995457 249.653528,266.000023 C248.265284,266.004588 247.479829,266.753287 247.443297,267.794162 L248.667144,267.794162 C248.689977,267.406116 249.050738,267.040897 249.607862,267.040897 C250.137587,267.040897 250.530315,267.355899 250.534881,267.821553 C250.534881,268.278077 250.155854,268.62047 249.607862,268.62047 L248.945706,268.62047 L248.945706,269.656779 Z M252.90951,266.114154 L252.90951,267.218941 L255.946296,267.218941 L255.946296,267.27829 L253.357037,272.345705 L254.745282,272.345705 L257.270608,267.241768 L257.270608,266.114154 L252.90951,266.114154 Z M257.393906,271.624398 C257.393906,272.126574 257.763801,272.43701 258.22046,272.43701 C258.690819,272.43701 259.056147,272.126574 259.056147,271.624398 C259.056147,271.122221 258.690819,270.798089 258.22046,270.798089 C257.759234,270.798089 257.393906,271.117656 257.393906,271.624398 Z M260.31196,270.697654 C260.343927,271.692876 261.220713,272.464402 262.554158,272.464402 C263.969803,272.464402 264.933354,271.592441 264.933354,270.236565 C264.933354,268.921776 264.001769,268.205033 262.933186,268.205033 C262.225364,268.205033 261.80067,268.538296 261.677372,268.739166 L261.61344,268.739166 L261.741305,267.209811 L264.57716,267.209811 L264.57716,266.114154 L260.695554,266.114154 L260.439825,269.766345 L261.595174,269.766345 C261.723038,269.542648 262.038133,269.232212 262.576991,269.232212 C263.175215,269.232212 263.663841,269.647649 263.663841,270.282217 C263.663841,270.976134 263.147816,271.39157 262.572425,271.39157 C262.070099,271.39157 261.59974,271.140482 261.512975,270.697654 L260.31196,270.697654 Z M267.038554,268.752862 C266.271366,268.752862 265.673143,268.15025 265.673143,267.378725 C265.673143,266.607199 266.2668,266.009153 267.038554,266.009153 C267.805742,266.009153 268.3994,266.607199 268.3994,267.378725 C268.3994,268.15025 267.801176,268.752862 267.038554,268.752862 Z M267.043121,267.985902 C267.381049,267.985902 267.645911,267.707422 267.645911,267.378725 C267.645911,267.045462 267.381049,266.776113 267.043121,266.776113 C266.70976,266.776113 266.431197,267.045462 266.431197,267.378725 C266.431197,267.707422 266.70976,267.985902 267.043121,267.985902 Z" id="137.5째" fill="#000000"></path>
            <path d="M135.785623,272.336552 L135.785623,266.105001 L134.47501,266.105001 L133,267.15044 L133,268.38762 L134.411078,267.396963 L134.47501,267.396963 L134.47501,272.336552 L135.785623,272.336552 Z M137.520929,270.688501 C137.552895,271.683723 138.429681,272.455249 139.763127,272.455249 C141.178771,272.455249 142.142323,271.583288 142.142323,270.227412 C142.142323,268.912623 141.210737,268.19588 140.142154,268.19588 C139.434332,268.19588 139.009639,268.529143 138.886341,268.730013 L138.822408,268.730013 L138.950273,267.200658 L141.786128,267.200658 L141.786128,266.105001 L137.904523,266.105001 L137.648793,269.757192 L138.804142,269.757192 C138.932006,269.533495 139.247102,269.223059 139.78596,269.223059 C140.384184,269.223059 140.872809,269.638496 140.872809,270.273064 C140.872809,270.966981 140.356784,271.382417 139.781393,271.382417 C139.279068,271.382417 138.808708,271.131329 138.721943,270.688501 L137.520929,270.688501 Z M144.247523,268.743709 C143.480335,268.743709 142.882111,268.141097 142.882111,267.369572 C142.882111,266.598046 143.475768,266 144.247523,266 C145.014711,266 145.608368,266.598046 145.608368,267.369572 C145.608368,268.141097 145.010144,268.743709 144.247523,268.743709 Z M144.252089,267.976749 C144.590017,267.976749 144.85488,267.698269 144.85488,267.369572 C144.85488,267.036309 144.590017,266.76696 144.252089,266.76696 C143.918728,266.76696 143.640166,267.036309 143.640166,267.369572 C143.640166,267.698269 143.918728,267.976749 144.252089,267.976749 Z" id="15째" fill="#000000"></path>
            <polyline id="Line" stroke="#0000FF" stroke-linecap="square" points="213 277.79002 213 140 296.882668 140"></polyline>
            <polyline id="Line" stroke="#0000FF" stroke-linecap="square" points="296.774117 162 227.027508 162.111681 227 277.981174"></polyline>
            <polyline id="Line" stroke="#0000FF" stroke-linecap="square" points="286.051022 277.719368 286 267 296.659688 267"></polyline>
            <ellipse id="Oval-2" stroke="#FF0000" fill="#FFFFFF" cx="227.94351" cy="162.94234" rx="3.94351037" ry="3.94234005"></ellipse>
            <ellipse id="Oval-2" stroke="#FF0000" fill="#FFFFFF" cx="283.94351" cy="157.94234" rx="3.94351037" ry="3.94234005"></ellipse>
            <path d="M297,57.2090253 L297,278.5 L76.2051934,278.5 L297,57.2090253 Z" id="Rectangle-2" stroke="#FF0000"></path>
            <path d="M239.479892,129.304241 C239.479892,129.934069 239.6472,130.432103 239.982262,130.797897 C240.325354,131.169069 240.7782,131.354207 241.340354,131.354207 C241.906523,131.354207 242.358923,131.17131 242.697554,130.804621 C243.037077,130.437931 243.206615,129.948862 243.206615,129.336966 C243.206615,128.724621 243.037077,128.235103 242.697554,127.868414 C242.354462,127.498138 241.902062,127.313 241.340354,127.313 C240.786231,127.313 240.338292,127.498138 239.9952,127.868414 C239.651662,128.239586 239.479892,128.717897 239.479892,129.304241 M238,129.278241 C238,128.369138 238.323462,127.594966 238.971277,126.957069 C239.619538,126.319172 240.408785,126 241.340354,126 C242.275492,126 243.0692,126.321414 243.721477,126.963345 C244.364831,127.605724 244.686508,128.395138 244.686508,129.33069 C244.686508,130.27431 244.3626,131.065966 243.715231,131.703862 C243.062954,132.336828 242.262554,132.654207 241.314031,132.654207 C240.374877,132.654207 239.587415,132.331 238.952092,131.684138 C238.317215,131.046241 238,130.245172 238,129.278241" id="Fill-1" fill="#000000"></path>
            <path d="M249.891631,129.362517 C249.891631,128.75869 249.727892,128.267379 249.401754,127.88769 C249.071154,127.504414 248.655338,127.313 248.153415,127.313 C247.621154,127.313 247.189723,127.498138 246.859569,127.868414 C246.528969,128.239586 246.363892,128.72731 246.363892,129.33069 C246.363892,129.921069 246.528969,130.408345 246.859569,130.791621 C247.185708,131.166828 247.614462,131.354207 248.147169,131.354207 C248.649092,131.354207 249.062677,131.165034 249.389262,130.784897 C249.723877,130.406103 249.891631,129.931379 249.891631,129.362517 L249.891631,129.362517 Z M246.447769,135.901069 L245,135.901069 L245,126.174828 L246.447769,126.174828 L246.447769,126.859793 C247.017954,126.286448 247.665769,126 248.391662,126 C249.254077,126 249.964354,126.319172 250.522046,126.957069 C251.088215,127.590483 251.371523,128.391103 251.371523,129.355793 C251.371523,130.30031 251.090446,131.087483 250.528292,131.715966 C249.9706,132.34131 249.266569,132.654207 248.417092,132.654207 C247.683169,132.654207 247.026877,132.359241 246.447769,131.767966 L246.447769,135.901069 Z" id="Fill-2" fill="#000000"></path>
            <polygon id="Fill-3" fill="#000000" points="254.065692 127.666448 254.065692 132.607345 252.617923 132.607345 252.617923 127.666448 252 127.666448 252 126.309069 252.617923 126.309069 252.617923 124 254.065692 124 254.065692 126.309069 254.697892 126.309069 254.697892 127.666448"></polygon>
            <path d="M256.666831,132.524966 L255.218615,132.524966 L255.218615,126.226241 L256.666831,126.226241 L256.666831,132.524966 Z M255,123.938241 C255,123.683172 255.092354,123.463517 255.276615,123.278379 C255.460877,123.092793 255.682169,123 255.9396,123 C256.201046,123 256.424123,123.092793 256.608831,123.278379 C256.793092,123.459483 256.885892,123.680931 256.885892,123.944517 C256.885892,124.207655 256.793092,124.431345 256.608831,124.616483 C256.428585,124.802517 256.207292,124.89531 255.945846,124.89531 C255.6844,124.89531 255.460877,124.802517 255.276615,124.616483 C255.092354,124.431345 255,124.205414 255,123.938241 L255,123.938241 Z" id="Fill-4" fill="#000000"></path>
            <path d="M259.479892,129.304241 C259.479892,129.934069 259.6472,130.432103 259.981815,130.797897 C260.325354,131.169069 260.777308,131.354207 261.339908,131.354207 C261.906969,131.354207 262.358923,131.17131 262.698,130.804621 C263.036631,130.437931 263.206615,129.948862 263.206615,129.336966 C263.206615,128.724621 263.036631,128.235103 262.698,127.868414 C262.354015,127.498138 261.902062,127.313 261.339908,127.313 C260.786231,127.313 260.338292,127.498138 259.9952,127.868414 C259.651662,128.239586 259.479892,128.717897 259.479892,129.304241 M258,129.278241 C258,128.369138 258.323462,127.594966 258.971277,126.957069 C259.619092,126.319172 260.408785,126 261.339908,126 C262.275492,126 263.0692,126.321414 263.721477,126.963345 C264.364831,127.605724 264.686508,128.395138 264.686508,129.33069 C264.686508,130.27431 264.3626,131.065966 263.715231,131.703862 C263.062508,132.336828 262.262554,132.654207 261.314031,132.654207 C260.374431,132.654207 259.586969,132.331 258.952092,131.684138 C258.317215,131.046241 258,130.245172 258,129.278241" id="Fill-5" fill="#000000"></path>
            <path d="M265,126.174828 L266.454015,126.174828 L266.454015,126.75669 C266.960846,126.252379 267.531477,126 268.166354,126 C268.895369,126 269.463769,126.230862 269.872,126.69169 C270.223569,127.084379 270.400246,127.724069 270.400246,128.612103 L270.400246,132.473552 L268.944892,132.473552 L268.944892,128.959517 C268.944892,128.339552 268.859231,127.911897 268.687462,127.67431 C268.5206,127.43269 268.215877,127.313 267.773292,127.313 C267.292785,127.313 266.951923,127.472138 266.750708,127.789966 C266.552615,128.104655 266.454015,128.653793 266.454015,129.438276 L266.454015,132.473552 L265,132.473552 L265,126.174828 Z" id="Fill-6" fill="#000000"></path>
            <path d="M272.480338,129.304241 C272.480338,129.908517 272.640954,130.399379 272.963077,130.778621 C273.293677,131.162793 273.709938,131.354207 274.211862,131.354207 C274.748585,131.354207 275.180908,131.169069 275.511954,130.797897 C275.841662,130.414621 276.007185,129.927793 276.007185,129.336966 C276.007185,128.746138 275.841662,128.258862 275.511954,127.87469 C275.180908,127.500379 274.7526,127.313 274.2248,127.313 C273.726892,127.313 273.310185,127.502172 272.976015,127.881414 C272.645415,128.265586 272.480338,128.738966 272.480338,129.304241 L272.480338,129.304241 Z M275.917508,126.174828 L277.371969,126.174828 L277.371969,132.473552 L275.917508,132.473552 L275.917508,131.81369 C275.321,132.374034 274.678985,132.654207 273.9928,132.654207 C273.125923,132.654207 272.409846,132.339517 271.843231,131.70969 C271.280631,131.068207 271,130.265793 271,129.304241 C271,128.360621 271.280631,127.573 271.843231,126.944069 C272.405385,126.31469 273.108969,126 273.953985,126 C274.683446,126 275.338846,126.30169 275.917508,126.905517 L275.917508,126.174828 Z" id="Fill-7" fill="#000000"></path>
            <polygon id="Fill-8" fill="#000000" points="278 132.605103 279.448215 132.605103 279.448215 124 278 124"></polygon>
            <path d="M281,131.892069 C281,131.650448 281.088785,131.442 281.264123,131.265379 C281.4408,131.088759 281.650938,131 281.894985,131 C282.139923,131 282.350062,131.088759 282.526292,131.265379 C282.702077,131.442 282.789969,131.653138 282.789969,131.898793 C282.789969,132.148483 282.702077,132.362759 282.526292,132.538931 C282.354523,132.711069 282.144385,132.797586 281.894985,132.797586 C281.642462,132.797586 281.430092,132.711069 281.257877,132.538931 C281.086554,132.367241 281,132.150724 281,131.892069" id="Fill-9" fill="#000000"></path>
            <path d="M284.667723,132.524966 L283.219954,132.524966 L283.219954,126.226241 L284.667723,126.226241 L284.667723,132.524966 Z M283,123.938241 C283,123.683172 283.091908,123.463517 283.277062,123.278379 C283.461323,123.092793 283.682615,123 283.940492,123 C284.201492,123 284.425015,123.092793 284.608831,123.278379 C284.793538,123.459483 284.886338,123.680931 284.886338,123.944517 C284.886338,124.207655 284.793538,124.431345 284.608831,124.616483 C284.429031,124.802517 284.207738,124.89531 283.946292,124.89531 C283.6844,124.89531 283.461323,124.802517 283.277062,124.616483 C283.091908,124.431345 283,124.205414 283,123.938241 L283,123.938241 Z" id="Fill-10" fill="#000000"></path>
            <path d="M289.067138,127.247552 L287.871,127.88769 C287.681385,127.504414 287.447154,127.313 287.168754,127.313 C287.035354,127.313 286.921585,127.356483 286.827446,127.445241 C286.733308,127.533552 286.686015,127.646069 286.686015,127.78369 C286.686015,128.024862 286.964862,128.264241 287.522554,128.500483 C288.290385,128.831759 288.807031,129.138379 289.073831,129.418103 C289.339738,129.698276 289.473138,130.074379 289.473138,130.548655 C289.473138,131.155172 289.249169,131.663517 288.803908,132.072793 C288.370246,132.460552 287.846908,132.654207 287.232554,132.654207 C286.181415,132.654207 285.437231,132.139138 285,131.108103 L286.235846,130.532069 C286.407169,130.835103 286.537892,131.026517 286.628015,131.108103 C286.804246,131.272621 287.013492,131.354207 287.258877,131.354207 C287.747862,131.354207 287.992354,131.130069 287.992354,130.681345 C287.992354,130.42269 287.803631,130.181517 287.426631,129.957379 C287.280292,129.88431 287.133954,129.813483 286.988508,129.744 C286.842615,129.675414 286.694492,129.60369 286.544585,129.530621 C286.123862,129.323966 285.827169,129.116414 285.655846,128.910207 C285.437231,128.646621 285.327923,128.308621 285.327923,127.894414 C285.327923,127.347517 285.514862,126.89431 285.887846,126.536586 C286.269754,126.178414 286.733308,126 287.278062,126 C288.0798,126 288.6772,126.416 289.067138,127.247552" id="Fill-11" fill="#000000"></path>
            <path d="M236.056938,124 L237.060785,124.387759 C236.710554,125.231414 236.464723,126.010966 236.322846,126.725069 C236.252354,127.087724 236.199262,127.46831 236.163569,127.867724 C236.128323,128.267138 236.110477,128.702862 236.110477,129.174897 C236.110477,129.649621 236.128323,130.087138 236.163569,130.486103 C236.199262,130.885966 236.252354,131.266103 236.322846,131.628759 C236.461154,132.340172 236.706985,133.118379 237.060785,133.962034 L236.056938,134.349345 C235.352015,132.872276 235,131.147759 235,129.174897 C235,127.202034 235.352015,125.477517 236.056938,124" id="Fill-12" fill="#000000"></path>
            <path d="M291.004738,134.349793 L290,133.962483 C290.354246,133.117483 290.600523,132.340172 290.739277,131.629207 C290.883385,130.917793 290.955662,130.100138 290.955662,129.175345 C290.955662,128.256828 290.883385,127.440069 290.739277,126.725517 C290.596954,126.010966 290.351123,125.23231 290,124.387759 L291.004738,124 C291.705646,125.477517 292.056323,127.202483 292.056323,129.175345 C292.056323,131.146862 291.705646,132.872276 291.004738,134.349793" id="Fill-13" fill="#000000"></path>
        </g>
    </g>
</svg>